inDegrees=yes
name=ik_S57_A03_T01
DataType=double
version=3
OpenSimVersion=4.3-2021-08-27-4bc7ad9
endheader
time	pelvis_tilt	pelvis_list	pelvis_rotation	pelvis_tx	pelvis_ty	pelvis_tz	hip_flexion_r	hip_adduction_r	hip_rotation_r	knee_angle_r	knee_angle_r_beta	ankle_angle_r	subtalar_angle_r	mtp_angle_r	hip_flexion_l	hip_adduction_l	hip_rotation_l	knee_angle_l	knee_angle_l_beta	ankle_angle_l	subtalar_angle_l	mtp_angle_l	lumbar_extension	lumbar_bending	lumbar_rotation	arm_flex_r	arm_add_r	arm_rot_r	elbow_flex_r	pro_sup_r	wrist_flex_r	wrist_dev_r	arm_flex_l	arm_add_l	arm_rot_l	elbow_flex_l	pro_sup_l	wrist_flex_l	wrist_dev_l
27.85999999999949	-1.595346159182953	0.1365365811774198	-71.65995863257787	0	0.9399999999999999	0	8.837842139181962	5.630375637460027	-3.131123789735564	12.18290802374603	0.2126318574820037	0	0	0	14.47730156225873	-3.533009193648556	0.304113547899559	48.63843604308609	0.8489008519725347	0	0	0	0	0	0	42.709369356815	-42.709369356815	4.971919279421199	84.62407481888405	85.02808099381296	0	0	42.709369356815	-42.709369356815	4.971919279421199	84.62407481888405	85.02808099380806	0	0
27.87999999999949	-1.421379299346575	0.215495978439993	-70.95743385095577	0	0.9399999999999999	0	7.489680214316023	5.845203299227621	-3.248853439237634	11.37837358253015	0.1985900825370939	0	0	0	15.6855418837245	-2.913587112088888	0.3823063938888788	45.81529723794652	0.7996277845820308	0	0	0	0	0	0	42.71449896683649	-42.71449896683649	4.972029884516791	84.6255555430383	85.02797038872164	0	0	42.71449896683649	-42.71449896683649	4.972029884516791	84.6255555430383	85.02797038871675	0	0
27.89999999999949	-1.287858857468482	0.3824434125241189	-70.24804320243514	0	0.9399999999999999	0	7.656710476091895	5.636709210095209	-4.074910562552783	11.85860821369104	0.206971758032952	0	0	0	16.87292291722826	-2.474190842101059	1.359183856433642	46.86279525026747	0.8179100738051274	0	0	0	0	0	0	42.71539010322732	-42.71539010322732	4.972051733116809	84.62584804264175	85.02794854012245	0	0	42.71539010322732	-42.71539010322732	4.972051733116809	84.62584804264175	85.02794854011755	0	0
27.91999999999949	-1.283640094935222	0.3797711169511703	-70.24402141719362	0	0.9399999999999999	0	6.958639664639496	5.823943450397082	-3.691657996907446	11.39556130086201	0.1988900648128902	0	0	0	16.774804316624	-2.064546171144344	0.8771008981929697	36.66320252151191	0.6398935983258699	0	0	0	0	0	0	42.74025567023306	-42.74025567023306	4.972567886867145	84.63275803016428	85.02743238639172	0	0	42.74025567023306	-42.74025567023306	4.972567886867145	84.63275803016428	85.02743238638699	0	0
27.93999999999949	-1.047032417284499	0.709829230705182	-69.01243526302228	0	0.9399999999999999	0	5.928182122503695	5.689492919277782	-3.941004071340685	11.22229213044906	0.1958659472969851	0	0	0	18.43966284053802	-1.751057772617052	3.167193209358297	38.00900731958595	0.6633823231413996	0	0	0	0	0	0	42.7410947626839	-42.7410947626839	4.972588313675473	84.63303149524823	85.02741195958416	0	0	42.7410947626839	-42.7410947626839	4.972588313675473	84.63303149524823	85.02741195957945	0	0
27.95999999999949	-1.000527292068233	0.7914559629003153	-68.54965851276975	0	0.9399999999999999	0	5.358555265747706	5.818592937645835	-3.901591708813588	10.89303433215294	0.1901193146288504	0	0	0	18.43152981795825	-1.241362592208846	3.34375503019747	31.96761839460804	0.5579401950070141	0	0	0	0	0	0	42.74245398052396	-42.74245398052396	4.972621395879314	84.63347438516085	85.02737887738157	0	0	42.74245398052396	-42.74245398052396	4.972621395879314	84.63347438516085	85.02737887737685	0	0
27.97999999999949	-1.016364094197594	0.8056152212907334	-68.17003664304592	0	0.9399999999999999	0	4.77990997661256	5.997117240202588	-3.932917712167703	10.69485280373326	0.1866603944412923	0	0	0	18.79745454018216	-1.143789892734665	2.685713677844729	32.34831974069721	0.5645846869630448	0	0	0	0	0	0	42.74281415199734	-42.74281415199734	4.972630196004768	84.63359219736751	85.02737007725641	0	0	42.74281415199734	-42.74281415199734	4.972630196004768	84.63359219736751	85.0273700772517	0	0
27.99999999999949	-1.184689987230269	0.9152389058470748	-67.7521741385447	0	0.9399999999999999	0	4.368895240847968	6.216000929910883	-4.175879124974421	10.62014849311756	0.1853565582556158	0	0	0	17.64172174571386	-0.2613475005377963	-0.4644448129477708	31.23745795998924	0.5451964913551234	0	0	0	0	0	0	42.74741586047466	-42.74741586047466	4.97272809833189	84.63490286243145	85.02727217493305	0	0	42.74741586047466	-42.74741586047466	4.97272809833189	84.63490286243145	85.02727217492836	0	0
28.01999999999949	-1.185339512125771	0.9155751881070199	-67.7529654999806	0	0.9399999999999999	0	3.810646953823828	6.277601211109832	-3.976068667732523	10.07413626153266	0.1758268470582975	0	0	0	17.4243872314944	0.4622913602913782	-1.072052426770535	12.73041181273347	0.2221876012669788	0	0	0	0	0	0	42.77824543371835	-42.77824543371835	4.973362192578053	84.64339176969808	85.02663808071104	0	0	42.77824543371835	-42.77824543371835	4.973362192578053	84.64339176969808	85.02663808070642	0	0
28.03999999999949	-1.378935061000962	0.913146436019265	-67.40650597944719	0	0.9399999999999999	0	3.417680616697859	6.57680019060597	-4.046458161447229	9.583061233330699	0.1672559709418493	0	0	0	17.49564444978176	0.3895516652898695	-0.6887045685927605	12.7314591837757	0.2222058813401558	0	0	0	0	0	0	42.77861624017825	-42.77861624017825	4.973371132683966	84.643511455775	85.02662914060544	0	0	42.77861624017825	-42.77861624017825	4.973371132683966	84.643511455775	85.02662914060082	0	0
28.05999999999949	-1.891837219442711	0.6329516946716223	-67.01569382357258	0	0.9399999999999999	0	3.390143501512471	7.126049992656741	-4.485852761848207	9.844407903796878	0.1718173308306087	0	0	0	15.19072314670044	0.9571883123486435	-4.872688407818258	-0.04341966344828515	-0.0007578160872804105	0	0	0	0	0	0	42.78217826943774	-42.78217826943774	4.973452309801765	84.64459821552265	85.02654796349077	0	0	42.78217826943774	-42.78217826943774	4.973452309801765	84.64459821552265	85.02654796348617	0	0
28.07999999999949	-2.163045527282933	0.3732087097454286	-66.87264511016758	0	0.9399999999999999	0	2.350976550339742	7.659398743006524	-3.700969740160355	8.804544939071972	0.1536682983266094	0	0	0	14.80322739521175	0.9115660475108277	-5.551038660519319	-7.742042348064861	-0.1351241298025647	0	0	0	0	0	0	42.78397900208208	-42.78397900208208	4.973495643396172	84.64517834589948	85.02650462989806	0	0	42.78397900208208	-42.78397900208208	4.973495643396172	84.64517834589948	85.02650462989344	0	0
28.09999999999949	-2.164969005243603	0.3714316239998319	-66.88644765811556	0	0.9399999999999999	0	1.869006564631357	7.840251961869559	-3.025551499899079	8.2120828476368	0.143327884137814	0	0	0	14.79628902598458	0.9114702798669253	-5.561270513296219	-7.736787499223174	-0.1350324153885826	0	0	0	0	0	0	42.78435073396035	-42.78435073396035	4.973504600163316	84.6452982550138	85.02649567313125	0	0	42.78435073396035	-42.78435073396035	4.973504600163316	84.6452982550138	85.02649567312665	0	0
28.11999999999949	-2.424528611713598	0.1360652401870145	-66.70347767146703	0	0.9399999999999999	0	1.25546216019227	8.339260607967972	-2.543116972232543	7.472707716309642	0.1304233536887896	0	0	0	14.50965131050421	1.877203671293481	-6.945893216365539	-9.496377438502387	-0.165743053313972	0	0	0	0	0	0	42.7785358628288	-42.7785358628288	4.973389794334948	84.64376130022303	85.02661047895532	0	0	42.7785358628288	-42.7785358628288	4.973389794334948	84.64376130022303	85.02661047895069	0	0
28.13999999999949	-2.431908360270015	0.1321685159203506	-66.68349711302292	0	0.9399999999999999	0	1.171645726419293	8.278187354166858	-2.916972929695387	9.871354142252539	0.1722876314126875	0	0	0	14.51844847149626	1.878122559603022	-6.918595071543758	-9.501615655985164	-0.165834477455982	0	0	0	0	0	0	42.77922035209056	-42.77922035209056	4.973406199143289	84.64398092028138	85.02659407414764	0	0	42.77922035209056	-42.77922035209056	4.973406199143289	84.64398092028138	85.02659407414302	0	0
28.15999999999949	-2.999127568440196	-0.4511295411371259	-66.12169459856702	0	0.9399999999999999	0	0.2733606307749563	8.938075876086776	-3.48028732517111	12.42394364415959	0.2168387226728077	0	0	0	14.78244551939266	1.251576886622859	-4.867553445524543	-7.874166479281502	-0.1374301309136321	0	0	0	0	0	0	42.78056688110448	-42.78056688110448	4.973438618320842	84.64441493344972	85.02656165497137	0	0	42.78056688110448	-42.78056688110448	4.973438618320842	84.64441493344972	85.02656165496676	0	0
28.17999999999949	-2.998939892094284	-0.4600955792868706	-66.13670443146398	0	0.9399999999999999	0	-0.5695400559685077	9.130040874661766	-2.469013589303353	11.97966222163347	0.2090845490442827	0	0	0	14.90149572637405	1.258046704172313	-4.465701175168374	-7.879437058635954	-0.1375221198768549	0	0	0	0	0	0	42.78112147650328	-42.78112147650328	4.973451952746281	84.64459344864501	85.02654832054644	0	0	42.78112147650328	-42.78112147650328	4.973451952746281	84.64459344864501	85.02654832054182	0	0
28.19999999999949	-3.519560329296159	-0.559146075853898	-65.37656795875735	0	0.9399999999999999	0	-0.4265362720707051	9.59141062687439	-2.513511571387595	11.63855053356259	0.20313102697041	0	0	0	14.82763237807226	0.9324843722493298	-3.146265416754308	-6.279076032414315	-0.109590550748692	0	0	0	0	0	0	42.78212757601079	-42.78212757601079	4.973476148043956	84.6449173642324	85.02652412524967	0	0	42.78212757601079	-42.78212757601079	4.973476148043956	84.6449173642324	85.02652412524505	0	0
28.21999999999949	-3.518608706956099	-0.5639856792089145	-65.37231987678612	0	0.9399999999999999	0	-0.3134352954063662	9.366083875736159	-1.765219189940302	13.14892125943095	0.2294919690625496	0	0	0	14.46480009631389	0.9485793501995239	-3.360922411271516	-6.540575382916291	-0.1141545754067782	0	0	0	0	0	0	42.78263422908726	-42.78263422908726	4.973488360532015	84.6450808594556	85.0265119127621	0	0	42.78263422908726	-42.78263422908726	4.973488360532015	84.6450808594556	85.02651191275748	0	0
28.23999999999949	-3.304793044416442	-0.2673063973446543	-64.15287334291754	0	0.9399999999999999	0	0.2653593056938763	8.429512057672287	-2.460245834038884	17.06297147873927	0.297805032477886	0	0	0	14.38958541721123	1.438797521936626	-2.574964368999511	-4.019646090727918	-0.07015605904812089	0	0	0	0	0	0	42.78419847878479	-42.78419847878479	4.973525971820644	84.64558438217705	85.02647430147493	0	0	42.78419847878479	-42.78419847878479	4.973525971820644	84.64558438217705	85.02647430147032	0	0
28.25999999999949	-3.015341737616382	-0.1977610303210809	-63.44762105670471	0	0.9399999999999999	0	0.6588805822928266	7.419123450269027	-2.817869169976531	19.35244231847366	0.3377638367596504	0	0	0	14.31489883830594	1.89491875333876	-1.953009878350259	-3.00271594049633	-0.05240727966377908	0	0	0	0	0	0	42.78546328455872	-42.78546328455872	4.973556341158435	84.64599095294054	85.02644393213831	0	0	42.78546328455872	-42.78546328455872	4.973556341158435	84.64599095294054	85.02644393213369	0	0
28.27999999999949	-3.027403238355108	-0.2083680227253082	-63.45314929893749	0	0.9399999999999999	0	1.351045956615131	6.448035342497516	-2.980874645776905	22.81087085374912	0.3981248016451321	0	0	0	14.13963231881508	1.787674044223729	-2.275342128984023	-3.104165525446598	-0.05417790894594295	0	0	0	0	0	0	42.78645512587114	-42.78645512587114	4.973580065065895	84.64630855767686	85.02642020823187	0	0	42.78645512587114	-42.78645512587114	4.973580065065895	84.64630855767686	85.02642020822725	0	0
